<svg preserveAspectRatio="none" width="100%" height="100%" overflow="visible" style="display: block;" viewBox="0 0 85.1782 186.426" fill="none" xmlns="http://www.w3.org/2000/svg">
<g id="5k-milestone">
<mask id="path-1-outside-1_103_4206" maskUnits="userSpaceOnUse" x="-0.999567" y="-0.18644" width="87" height="187" fill="black">
<rect fill="white" x="-0.999567" y="-0.18644" width="87" height="187"/>
<path d="M77.4754 173.962C71.0449 183.146 58.2669 185.472 50.0703 177.823C28.3379 157.542 13.2353 130.94 7.07728 101.526C0.919288 72.1117 4.0828 41.6856 15.8549 14.3905C20.295 4.09574 32.933 1.10111 42.5074 6.93421V6.93421C52.0819 12.7673 54.9008 25.2259 51.0278 35.7471C44.3086 54.0001 42.7751 73.9058 46.8158 93.2064C50.8564 112.507 60.2459 130.126 73.7226 144.151C81.4907 152.235 83.906 164.778 77.4754 173.962V173.962Z"/>
</mask>
<g filter="url(#filter0_i_103_4206)">
<path d="M77.4754 173.962C71.0449 183.146 58.2669 185.472 50.0703 177.823C28.3379 157.542 13.2353 130.94 7.07728 101.526C0.919288 72.1117 4.0828 41.6856 15.8549 14.3905C20.295 4.09574 32.933 1.10111 42.5074 6.93421V6.93421C52.0819 12.7673 54.9008 25.2259 51.0278 35.7471C44.3086 54.0001 42.7751 73.9058 46.8158 93.2064C50.8564 112.507 60.2459 130.126 73.7226 144.151C81.4907 152.235 83.906 164.778 77.4754 173.962V173.962Z" fill="var(--fill-0, #333333)"/>
</g>
<path d="M77.4754 173.962C71.0449 183.146 58.2669 185.472 50.0703 177.823C28.3379 157.542 13.2353 130.94 7.07728 101.526C0.919288 72.1117 4.0828 41.6856 15.8549 14.3905C20.295 4.09574 32.933 1.10111 42.5074 6.93421V6.93421C52.0819 12.7673 54.9008 25.2259 51.0278 35.7471C44.3086 54.0001 42.7751 73.9058 46.8158 93.2064C50.8564 112.507 60.2459 130.126 73.7226 144.151C81.4907 152.235 83.906 164.778 77.4754 173.962V173.962Z" stroke="var(--stroke-0, black)" stroke-width="8" mask="url(#path-1-outside-1_103_4206)"/>
</g>
<defs>
<filter id="filter0_i_103_4206" x="0" y="0" width="85.1782" height="190.426" filterUnits="userSpaceOnUse" color-interpolation-filters="sRGB">
<feFlood flood-opacity="0" result="BackgroundImageFix"/>
<feBlend mode="normal" in="SourceGraphic" in2="BackgroundImageFix" result="shape"/>
<feColorMatrix in="SourceAlpha" type="matrix" values="0 0 0 0 0 0 0 0 0 0 0 0 0 0 0 0 0 0 127 0" result="hardAlpha"/>
<feOffset dy="4"/>
<feGaussianBlur stdDeviation="10"/>
<feComposite in2="hardAlpha" operator="arithmetic" k2="-1" k3="1"/>
<feColorMatrix type="matrix" values="0 0 0 0 1 0 0 0 0 1 0 0 0 0 1 0 0 0 0.1 0"/>
<feBlend mode="normal" in2="shape" result="effect1_innerShadow_103_4206"/>
</filter>
</defs>
</svg>
